<mxfile host="app.diagrams.net" agent="Mozilla/5.0 (Windows NT 10.0; Win64; x64) AppleWebKit/537.36 (KHTML, like Gecko) Chrome/131.0.0.0 Safari/537.36" version="24.9.1">
  <diagram name="Page-1" id="-4IbCbSpk6DqZA47D4Hw">
    <mxGraphModel dx="417" dy="304" grid="1" gridSize="10" guides="1" tooltips="1" connect="1" arrows="1" fold="1" page="1" pageScale="1" pageWidth="850" pageHeight="1100" math="0" shadow="0">
      <root>
        <mxCell id="0" />
        <mxCell id="1" parent="0" />
        <mxCell id="OsJT4_v6p5zmbBN5SUL9-35" style="edgeStyle=orthogonalEdgeStyle;rounded=0;orthogonalLoop=1;jettySize=auto;html=1;entryX=0.5;entryY=0;entryDx=0;entryDy=0;" edge="1" parent="1" source="OsJT4_v6p5zmbBN5SUL9-9" target="OsJT4_v6p5zmbBN5SUL9-26">
          <mxGeometry relative="1" as="geometry" />
        </mxCell>
        <mxCell id="OsJT4_v6p5zmbBN5SUL9-9" value="&lt;h3 style=&quot;margin:0in;line-height:150%&quot;&gt;School&lt;/h3&gt;" style="swimlane;fontStyle=1;align=center;verticalAlign=top;childLayout=stackLayout;horizontal=1;startSize=26;horizontalStack=0;resizeParent=1;resizeParentMax=0;resizeLast=0;collapsible=1;marginBottom=0;whiteSpace=wrap;html=1;" vertex="1" parent="1">
          <mxGeometry x="980" y="720" width="220" height="112" as="geometry" />
        </mxCell>
        <mxCell id="OsJT4_v6p5zmbBN5SUL9-12" value="&lt;li class=&quot;whitespace-normal break-words&quot;&gt;SchoolID: INT, Primary Key&lt;/li&gt;&lt;li class=&quot;whitespace-normal break-words&quot;&gt;SchoolName: NVARCHAR(255)&lt;/li&gt;&lt;li class=&quot;whitespace-normal break-words&quot;&gt;Address: NVARCHAR(300)&lt;/li&gt;&lt;li class=&quot;whitespace-normal break-words&quot;&gt;PhoneNumber: NVARCHAR(20)&lt;/li&gt;&lt;li class=&quot;whitespace-normal break-words&quot;&gt;PrincipalName: NVARCHAR(100)&lt;/li&gt;" style="text;strokeColor=none;fillColor=none;align=left;verticalAlign=top;spacingLeft=4;spacingRight=4;overflow=hidden;rotatable=0;points=[[0,0.5],[1,0.5]];portConstraint=eastwest;whiteSpace=wrap;html=1;" vertex="1" parent="OsJT4_v6p5zmbBN5SUL9-9">
          <mxGeometry y="26" width="220" height="86" as="geometry" />
        </mxCell>
        <mxCell id="OsJT4_v6p5zmbBN5SUL9-13" value="&lt;h3 style=&quot;margin:0in;line-height:150%&quot;&gt;Teacher&lt;/h3&gt;" style="swimlane;fontStyle=1;align=center;verticalAlign=top;childLayout=stackLayout;horizontal=1;startSize=26;horizontalStack=0;resizeParent=1;resizeParentMax=0;resizeLast=0;collapsible=1;marginBottom=0;whiteSpace=wrap;html=1;" vertex="1" parent="1">
          <mxGeometry x="580" y="946" width="230" height="120" as="geometry" />
        </mxCell>
        <mxCell id="OsJT4_v6p5zmbBN5SUL9-15" value="&lt;li class=&quot;whitespace-normal break-words&quot;&gt;&lt;span style=&quot;background-color: initial;&quot;&gt;TeacherID: INT, Primary Key&lt;/span&gt;&lt;/li&gt;&lt;li class=&quot;whitespace-normal break-words&quot;&gt;Name: NVARCHAR(100)&lt;/li&gt;&lt;li class=&quot;whitespace-normal break-words&quot;&gt;PhoneNumber: NVARCHAR(15)&lt;/li&gt;&lt;li class=&quot;whitespace-normal break-words&quot;&gt;Email: NVARCHAR(255)&lt;/li&gt;&lt;li class=&quot;whitespace-normal break-words&quot;&gt;ClassroomNumber: NVARCHAR(10)&lt;/li&gt;" style="text;strokeColor=none;fillColor=none;align=left;verticalAlign=top;spacingLeft=4;spacingRight=4;overflow=hidden;rotatable=0;points=[[0,0.5],[1,0.5]];portConstraint=eastwest;whiteSpace=wrap;html=1;" vertex="1" parent="OsJT4_v6p5zmbBN5SUL9-13">
          <mxGeometry y="26" width="230" height="94" as="geometry" />
        </mxCell>
        <mxCell id="OsJT4_v6p5zmbBN5SUL9-47" value="" style="endArrow=classic;html=1;rounded=0;entryX=0.482;entryY=0.018;entryDx=0;entryDy=0;entryPerimeter=0;" edge="1" parent="OsJT4_v6p5zmbBN5SUL9-13" target="OsJT4_v6p5zmbBN5SUL9-32">
          <mxGeometry width="50" height="50" relative="1" as="geometry">
            <mxPoint x="110" y="120" as="sourcePoint" />
            <mxPoint x="160" y="70" as="targetPoint" />
          </mxGeometry>
        </mxCell>
        <mxCell id="OsJT4_v6p5zmbBN5SUL9-20" value="&lt;h3 style=&quot;margin:0in;line-height:150%&quot;&gt;Subject&lt;/h3&gt;" style="swimlane;fontStyle=1;align=center;verticalAlign=top;childLayout=stackLayout;horizontal=1;startSize=26;horizontalStack=0;resizeParent=1;resizeParentMax=0;resizeLast=0;collapsible=1;marginBottom=0;whiteSpace=wrap;html=1;" vertex="1" parent="1">
          <mxGeometry x="200" y="1220" width="220" height="112" as="geometry" />
        </mxCell>
        <mxCell id="OsJT4_v6p5zmbBN5SUL9-22" value="&lt;li class=&quot;whitespace-normal break-words&quot;&gt;&lt;span style=&quot;background-color: initial;&quot;&gt;SubjectID: INT, Primary Key&lt;/span&gt;&lt;/li&gt;&lt;li class=&quot;whitespace-normal break-words&quot;&gt;SubjectName: NVARCHAR(100)&lt;/li&gt;&lt;li class=&quot;whitespace-normal break-words&quot;&gt;AgeGroup: NVARCHAR(50)&lt;/li&gt;&lt;li class=&quot;whitespace-normal break-words&quot;&gt;WeeklyHours: INT&lt;/li&gt;" style="text;strokeColor=none;fillColor=none;align=left;verticalAlign=top;spacingLeft=4;spacingRight=4;overflow=hidden;rotatable=0;points=[[0,0.5],[1,0.5]];portConstraint=eastwest;whiteSpace=wrap;html=1;" vertex="1" parent="OsJT4_v6p5zmbBN5SUL9-20">
          <mxGeometry y="26" width="220" height="86" as="geometry" />
        </mxCell>
        <mxCell id="OsJT4_v6p5zmbBN5SUL9-23" value="&lt;h3 style=&quot;margin:0in;line-height:150%&quot;&gt;Classroom&lt;/h3&gt;" style="swimlane;fontStyle=1;align=center;verticalAlign=top;childLayout=stackLayout;horizontal=1;startSize=26;horizontalStack=0;resizeParent=1;resizeParentMax=0;resizeLast=0;collapsible=1;marginBottom=0;whiteSpace=wrap;html=1;" vertex="1" parent="1">
          <mxGeometry x="1260" y="1160" width="230" height="112" as="geometry" />
        </mxCell>
        <mxCell id="OsJT4_v6p5zmbBN5SUL9-25" value="&lt;li class=&quot;whitespace-normal break-words&quot;&gt;&lt;span style=&quot;background-color: initial;&quot;&gt;ClassroomID: INT, Primary Key&lt;/span&gt;&lt;/li&gt;&lt;li class=&quot;whitespace-normal break-words&quot;&gt;RoomNumber: NVARCHAR(10)&lt;/li&gt;&lt;li class=&quot;whitespace-normal break-words&quot;&gt;Capacity: INT&lt;/li&gt;&lt;li class=&quot;whitespace-normal break-words&quot;&gt;Equipment: NVARCHAR(255)&lt;/li&gt;&lt;li class=&quot;whitespace-normal break-words&quot;&gt;Type: NVARCHAR(50)&lt;/li&gt;" style="text;strokeColor=none;fillColor=none;align=left;verticalAlign=top;spacingLeft=4;spacingRight=4;overflow=hidden;rotatable=0;points=[[0,0.5],[1,0.5]];portConstraint=eastwest;whiteSpace=wrap;html=1;" vertex="1" parent="OsJT4_v6p5zmbBN5SUL9-23">
          <mxGeometry y="26" width="230" height="86" as="geometry" />
        </mxCell>
        <mxCell id="OsJT4_v6p5zmbBN5SUL9-26" value="&lt;h3 style=&quot;margin:0in;line-height:150%&quot;&gt;Class&lt;/h3&gt;" style="swimlane;fontStyle=1;align=center;verticalAlign=top;childLayout=stackLayout;horizontal=1;startSize=26;horizontalStack=0;resizeParent=1;resizeParentMax=0;resizeLast=0;collapsible=1;marginBottom=0;whiteSpace=wrap;html=1;" vertex="1" parent="1">
          <mxGeometry x="980" y="950" width="220" height="112" as="geometry" />
        </mxCell>
        <mxCell id="OsJT4_v6p5zmbBN5SUL9-28" value="&lt;li class=&quot;whitespace-normal break-words&quot;&gt;&lt;span style=&quot;background-color: initial;&quot;&gt;ClassID: INT, Primary Key&lt;/span&gt;&lt;/li&gt;&lt;li class=&quot;whitespace-normal break-words&quot;&gt;ClassName: NVARCHAR(20)&lt;/li&gt;&lt;li class=&quot;whitespace-normal break-words&quot;&gt;ClassLevel: INT&lt;/li&gt;&lt;li class=&quot;whitespace-normal break-words&quot;&gt;ClassTeacherID: INT, Foreign Key&lt;/li&gt;&lt;li class=&quot;whitespace-normal break-words&quot;&gt;TotalStudents: INT&lt;/li&gt;" style="text;strokeColor=none;fillColor=none;align=left;verticalAlign=top;spacingLeft=4;spacingRight=4;overflow=hidden;rotatable=0;points=[[0,0.5],[1,0.5]];portConstraint=eastwest;whiteSpace=wrap;html=1;" vertex="1" parent="OsJT4_v6p5zmbBN5SUL9-26">
          <mxGeometry y="26" width="220" height="86" as="geometry" />
        </mxCell>
        <mxCell id="OsJT4_v6p5zmbBN5SUL9-29" value="&lt;h3 style=&quot;margin:0in;line-height:150%&quot;&gt;Schedule&lt;/h3&gt;" style="swimlane;fontStyle=1;align=center;verticalAlign=top;childLayout=stackLayout;horizontal=1;startSize=26;horizontalStack=0;resizeParent=1;resizeParentMax=0;resizeLast=0;collapsible=1;marginBottom=0;whiteSpace=wrap;html=1;" vertex="1" parent="1">
          <mxGeometry x="985" y="1150" width="230" height="172" as="geometry" />
        </mxCell>
        <mxCell id="OsJT4_v6p5zmbBN5SUL9-31" value="&lt;li class=&quot;whitespace-normal break-words&quot;&gt;&lt;span style=&quot;background-color: initial;&quot;&gt;ScheduleID: INT, Primary Key&lt;/span&gt;&lt;/li&gt;&lt;li class=&quot;whitespace-normal break-words&quot;&gt;ClassID: INT, Foreign Key&lt;/li&gt;&lt;li class=&quot;whitespace-normal break-words&quot;&gt;TeacherID: INT, Foreign Key&lt;/li&gt;&lt;li class=&quot;whitespace-normal break-words&quot;&gt;SubjectID: INT, Foreign Key&lt;/li&gt;&lt;li class=&quot;whitespace-normal break-words&quot;&gt;ClassroomID: INT, Foreign Key&lt;/li&gt;&lt;li class=&quot;whitespace-normal break-words&quot;&gt;DayOfWeek: NVARCHAR(20)&lt;/li&gt;&lt;li class=&quot;whitespace-normal break-words&quot;&gt;LessonNumber: INT&lt;/li&gt;&lt;li class=&quot;whitespace-normal break-words&quot;&gt;StartTime: TIME&lt;/li&gt;&lt;li class=&quot;whitespace-normal break-words&quot;&gt;EndTime: TIME&lt;/li&gt;" style="text;strokeColor=none;fillColor=none;align=left;verticalAlign=top;spacingLeft=4;spacingRight=4;overflow=hidden;rotatable=0;points=[[0,0.5],[1,0.5]];portConstraint=eastwest;whiteSpace=wrap;html=1;" vertex="1" parent="OsJT4_v6p5zmbBN5SUL9-29">
          <mxGeometry y="26" width="230" height="146" as="geometry" />
        </mxCell>
        <mxCell id="OsJT4_v6p5zmbBN5SUL9-32" value="&lt;h3 style=&quot;margin:0in;line-height:150%&quot;&gt;TeacherSubject&lt;/h3&gt;" style="swimlane;fontStyle=1;align=center;verticalAlign=top;childLayout=stackLayout;horizontal=1;startSize=26;horizontalStack=0;resizeParent=1;resizeParentMax=0;resizeLast=0;collapsible=1;marginBottom=0;whiteSpace=wrap;html=1;" vertex="1" parent="1">
          <mxGeometry x="585" y="1230" width="220" height="92" as="geometry" />
        </mxCell>
        <mxCell id="OsJT4_v6p5zmbBN5SUL9-34" value="&lt;li class=&quot;whitespace-normal break-words&quot;&gt;&lt;span style=&quot;background-color: initial;&quot;&gt;TeacherSubjectID: INT, Primary Key&lt;/span&gt;&lt;/li&gt;&lt;li class=&quot;whitespace-normal break-words&quot;&gt;TeacherID: INT, Foreign Key&lt;/li&gt;&lt;li class=&quot;whitespace-normal break-words&quot;&gt;SubjectID: INT, Foreign Key&lt;/li&gt;&lt;li class=&quot;whitespace-normal break-words&quot;&gt;Qualification: NVARCHAR(100)&lt;/li&gt;" style="text;strokeColor=none;fillColor=none;align=left;verticalAlign=top;spacingLeft=4;spacingRight=4;overflow=hidden;rotatable=0;points=[[0,0.5],[1,0.5]];portConstraint=eastwest;whiteSpace=wrap;html=1;" vertex="1" parent="OsJT4_v6p5zmbBN5SUL9-32">
          <mxGeometry y="26" width="220" height="66" as="geometry" />
        </mxCell>
        <mxCell id="OsJT4_v6p5zmbBN5SUL9-36" value="Керує" style="text;html=1;align=center;verticalAlign=middle;resizable=0;points=[];autosize=1;strokeColor=none;fillColor=none;" vertex="1" parent="1">
          <mxGeometry x="1080" y="878" width="60" height="30" as="geometry" />
        </mxCell>
        <mxCell id="OsJT4_v6p5zmbBN5SUL9-38" value="1" style="text;html=1;align=center;verticalAlign=middle;resizable=0;points=[];autosize=1;strokeColor=none;fillColor=none;" vertex="1" parent="1">
          <mxGeometry x="1085" y="828" width="30" height="30" as="geometry" />
        </mxCell>
        <mxCell id="OsJT4_v6p5zmbBN5SUL9-39" value="М" style="text;html=1;align=center;verticalAlign=middle;resizable=0;points=[];autosize=1;strokeColor=none;fillColor=none;" vertex="1" parent="1">
          <mxGeometry x="1085" y="920" width="30" height="30" as="geometry" />
        </mxCell>
        <mxCell id="OsJT4_v6p5zmbBN5SUL9-40" style="edgeStyle=orthogonalEdgeStyle;rounded=0;orthogonalLoop=1;jettySize=auto;html=1;entryX=0;entryY=0.5;entryDx=0;entryDy=0;" edge="1" parent="1" source="OsJT4_v6p5zmbBN5SUL9-15" target="OsJT4_v6p5zmbBN5SUL9-28">
          <mxGeometry relative="1" as="geometry" />
        </mxCell>
        <mxCell id="OsJT4_v6p5zmbBN5SUL9-41" value="Є класним керівником" style="text;html=1;align=center;verticalAlign=middle;resizable=0;points=[];autosize=1;strokeColor=none;fillColor=none;" vertex="1" parent="1">
          <mxGeometry x="820" y="970" width="150" height="30" as="geometry" />
        </mxCell>
        <mxCell id="OsJT4_v6p5zmbBN5SUL9-42" value="1" style="text;html=1;align=center;verticalAlign=middle;resizable=0;points=[];autosize=1;strokeColor=none;fillColor=none;" vertex="1" parent="1">
          <mxGeometry x="805" y="988" width="30" height="30" as="geometry" />
        </mxCell>
        <mxCell id="OsJT4_v6p5zmbBN5SUL9-43" value="1" style="text;html=1;align=center;verticalAlign=middle;resizable=0;points=[];autosize=1;strokeColor=none;fillColor=none;" vertex="1" parent="1">
          <mxGeometry x="955" y="988" width="30" height="30" as="geometry" />
        </mxCell>
        <mxCell id="OsJT4_v6p5zmbBN5SUL9-48" value="М" style="text;html=1;align=center;verticalAlign=middle;resizable=0;points=[];autosize=1;strokeColor=none;fillColor=none;" vertex="1" parent="1">
          <mxGeometry x="690" y="1062" width="30" height="30" as="geometry" />
        </mxCell>
        <mxCell id="OsJT4_v6p5zmbBN5SUL9-50" value="N" style="text;html=1;align=center;verticalAlign=middle;resizable=0;points=[];autosize=1;strokeColor=none;fillColor=none;" vertex="1" parent="1">
          <mxGeometry x="690" y="1200" width="30" height="30" as="geometry" />
        </mxCell>
        <mxCell id="OsJT4_v6p5zmbBN5SUL9-52" value="Викладає" style="text;html=1;align=center;verticalAlign=middle;resizable=0;points=[];autosize=1;strokeColor=none;fillColor=none;" vertex="1" parent="1">
          <mxGeometry x="690" y="1150" width="80" height="30" as="geometry" />
        </mxCell>
        <mxCell id="OsJT4_v6p5zmbBN5SUL9-53" style="edgeStyle=orthogonalEdgeStyle;rounded=0;orthogonalLoop=1;jettySize=auto;html=1;entryX=0;entryY=0.5;entryDx=0;entryDy=0;" edge="1" parent="1" source="OsJT4_v6p5zmbBN5SUL9-22" target="OsJT4_v6p5zmbBN5SUL9-34">
          <mxGeometry relative="1" as="geometry" />
        </mxCell>
        <mxCell id="OsJT4_v6p5zmbBN5SUL9-54" value="Викладається" style="text;html=1;align=center;verticalAlign=middle;resizable=0;points=[];autosize=1;strokeColor=none;fillColor=none;" vertex="1" parent="1">
          <mxGeometry x="450" y="1250" width="100" height="30" as="geometry" />
        </mxCell>
        <mxCell id="OsJT4_v6p5zmbBN5SUL9-56" value="М" style="text;html=1;align=center;verticalAlign=middle;resizable=0;points=[];autosize=1;strokeColor=none;fillColor=none;" vertex="1" parent="1">
          <mxGeometry x="420" y="1250" width="30" height="30" as="geometry" />
        </mxCell>
        <mxCell id="OsJT4_v6p5zmbBN5SUL9-57" value="N" style="text;html=1;align=center;verticalAlign=middle;resizable=0;points=[];autosize=1;strokeColor=none;fillColor=none;" vertex="1" parent="1">
          <mxGeometry x="550" y="1250" width="30" height="30" as="geometry" />
        </mxCell>
        <mxCell id="OsJT4_v6p5zmbBN5SUL9-58" value="" style="endArrow=classic;html=1;rounded=0;entryX=0;entryY=0;entryDx=0;entryDy=0;" edge="1" parent="1" target="OsJT4_v6p5zmbBN5SUL9-29">
          <mxGeometry width="50" height="50" relative="1" as="geometry">
            <mxPoint x="810" y="1066" as="sourcePoint" />
            <mxPoint x="860" y="1016" as="targetPoint" />
          </mxGeometry>
        </mxCell>
      </root>
    </mxGraphModel>
  </diagram>
</mxfile>
